<svg xmlns="http://www.w3.org/2000/svg" style="display: none;"><symbol id="search" viewBox="0 0 512 512"><title>search</title><path d="M447.615,64.386C406.095,22.866,350.892,0,292.175,0s-113.92,22.866-155.439,64.386 C95.217,105.905,72.35,161.108,72.35,219.824c0,53.683,19.124,104.421,54.132,144.458L4.399,486.366 c-5.864,5.864-5.864,15.371,0,21.236C7.331,510.533,11.174,512,15.016,512s7.686-1.466,10.617-4.399l122.084-122.083 c40.037,35.007,90.775,54.132,144.458,54.132c58.718,0,113.919-22.866,155.439-64.386c41.519-41.519,64.385-96.722,64.385-155.439 S489.134,105.905,447.615,64.386z M426.379,354.029c-74.001,74-194.406,74-268.407,0c-74-74-74-194.407,0-268.407 c37.004-37.004,85.596-55.5,134.204-55.5c48.596,0,97.208,18.505,134.204,55.5C500.378,159.621,500.378,280.028,426.379,354.029z"/></symbol><symbol id="plus" viewBox="0 0 341.4 341.4"><title>plus</title><polygon points="192,149.4 192,0 149.4,0 149.4,149.4 0,149.4 0,192 149.4,192 149.4,341.4 192,341.4 192,192 341.4,192 341.4,149.4 "/></symbol><symbol id="down-arrow" viewBox="0 0 213.333 213.333"><title>down-arrow</title><polygon points="0,53.333 106.667,160 213.333,53.333 "/></symbol><symbol id="up-arrow" viewBox="0 0 213.333 213.333"><title>up-arrow</title><polygon points="106.667,53.333 0,160 213.333,160 "/></symbol><symbol id="unchecked" viewBox="0 0 342.947 342.947"><title>unchecked</title><polygon points="342.947,21.213 321.734,0 171.473,150.26 21.213,0 0,21.213 150.26,171.473 0,321.734 21.213,342.947 171.473,192.686 321.734,342.947 342.947,321.734 192.686,171.473 "/></symbol><symbol id="visibility" viewBox="0 0 469.333 469.333"><title>visibility</title><path d="M234.667,170.667c-35.307,0-64,28.693-64,64s28.693,64,64,64s64-28.693,64-64S269.973,170.667,234.667,170.667z"/><path d="M234.667,74.667C128,74.667,36.907,141.013,0,234.667c36.907,93.653,128,160,234.667,160 c106.773,0,197.76-66.347,234.667-160C432.427,141.013,341.44,74.667,234.667,74.667z M234.667,341.333 c-58.88,0-106.667-47.787-106.667-106.667S175.787,128,234.667,128s106.667,47.787,106.667,106.667 S293.547,341.333,234.667,341.333z"/></symbol><symbol id="invisible" viewBox="0 0 469.44 469.44"><title>invisible</title><path d="M231.147,160.373l67.2,67.2l0.32-3.52c0-35.307-28.693-64-64-64L231.147,160.373z"/><path d="M234.667,117.387c58.88,0,106.667,47.787,106.667,106.667c0,13.76-2.773,26.88-7.573,38.933l62.4,62.4 c32.213-26.88,57.6-61.653,73.28-101.333c-37.013-93.653-128-160-234.773-160c-29.867,0-58.453,5.333-85.013,14.933l46.08,45.973 C207.787,120.267,220.907,117.387,234.667,117.387z"/><path d="M21.333,59.253l48.64,48.64l9.707,9.707C44.48,145.12,16.64,181.707,0,224.053c36.907,93.653,128,160,234.667,160 c33.067,0,64.64-6.4,93.547-18.027l9.067,9.067l62.187,62.293l27.2-27.093L48.533,32.053L21.333,59.253z M139.307,177.12 l32.96,32.96c-0.96,4.587-1.6,9.173-1.6,13.973c0,35.307,28.693,64,64,64c4.8,0,9.387-0.64,13.867-1.6l32.96,32.96 c-14.187,7.04-29.973,11.307-46.827,11.307C175.787,330.72,128,282.933,128,224.053C128,207.2,132.267,191.413,139.307,177.12z"/></symbol><symbol id="check" viewBox="0 0 426.667 426.667"><title>check</title><path d="M421.876,56.307c-6.548-6.78-17.352-6.968-24.132-0.42c-0.142,0.137-0.282,0.277-0.42,0.42L119.257,334.375 l-90.334-90.334c-6.78-6.548-17.584-6.36-24.132,0.42c-6.388,6.614-6.388,17.099,0,23.713l102.4,102.4 c6.665,6.663,17.468,6.663,24.132,0L421.456,80.44C428.236,73.891,428.424,63.087,421.876,56.307z"/></symbol><symbol id="calendar" viewBox="0 0 512 512"><title>calendar</title><g> <g> <path d="M0,165.014v272.984c0,24.198,19.687,43.885,43.885,43.885h424.23c24.198,0,43.885-19.686,43.885-43.884V165.014H0z M169.541,415.405c0,5.567-4.513,10.079-10.079,10.079H95.103c-5.567,0-10.079-4.513-10.079-10.079v-66.587 c0-5.567,4.513-10.079,10.079-10.079h64.359c5.567,0,10.079,4.513,10.079,10.079V415.405z M169.541,288.915 c0,5.567-4.513,10.079-10.079,10.079H95.103c-5.567,0-10.079-4.513-10.079-10.079v-66.587c0-5.567,4.513-10.079,10.079-10.079 h64.359c5.567,0,10.079,4.513,10.079,10.079V288.915z M298.259,415.405c0,5.567-4.513,10.079-10.079,10.079h-64.359 c-5.567,0-10.079-4.513-10.079-10.079v-66.587c0-5.567,4.513-10.079,10.079-10.079h64.359c5.567,0,10.079,4.513,10.079,10.079 V415.405z M298.259,288.915c0,5.567-4.513,10.079-10.079,10.079h-64.359c-5.567,0-10.079-4.513-10.079-10.079v-66.587 c0-5.567,4.513-10.079,10.079-10.079h64.359c5.567,0,10.079,4.513,10.079,10.079V288.915z M426.977,415.405 c0,5.567-4.513,10.079-10.079,10.079h-64.359c-5.567,0-10.079-4.513-10.079-10.079v-66.587c0-5.567,4.513-10.079,10.079-10.079 h64.359c5.567,0,10.079,4.513,10.079,10.079V415.405z M426.977,288.915c0,5.567-4.513,10.079-10.079,10.079h-64.359 c-5.567,0-10.079-4.513-10.079-10.079v-66.587c0-5.567,4.513-10.079,10.079-10.079h64.359c5.567,0,10.079,4.513,10.079,10.079 V288.915z"/> </g> </g><g> <g> <path d="M468.115,67.768h-41.742V45.236c0-8.35-6.769-15.119-15.119-15.119s-15.119,6.769-15.119,15.119v22.532h-47.388V45.236 c0-8.35-6.769-15.119-15.119-15.119c-8.35,0-15.119,6.769-15.119,15.119v22.532H271.12V45.236c0-8.35-6.769-15.119-15.119-15.119 s-15.119,6.769-15.119,15.119v22.532h-47.389V45.236c0-8.35-6.769-15.119-15.119-15.119c-8.35,0-15.119,6.769-15.119,15.119 v22.532h-47.388V45.236c0-8.35-6.769-15.119-15.119-15.119c-8.35,0-15.119,6.769-15.119,15.119v22.532h-0.002H43.885 C19.687,67.768,0,87.455,0,111.653v33.203h512v-33.203C512,87.455,492.313,67.768,468.115,67.768z"/> </g> </g></symbol><symbol id="more" viewBox="0 0 384 384"><title>more</title><g> <g> <circle cx="192" cy="42.667" r="42.667"/> </g> </g><g> <g> <circle cx="192" cy="192" r="42.667"/> </g> </g><g> <g> <circle cx="192" cy="341.333" r="42.667"/> </g> </g></symbol></svg>